<svg width="30" height="31" viewBox="0 0 30 31" fill="none" xmlns="http://www.w3.org/2000/svg">
<path fill-rule="evenodd" clip-rule="evenodd" d="M6.63698 3.38094C6.52967 3.24329 6.39434 3.13 6.23996 3.04859C6.08558 2.96717 5.91566 2.91948 5.74145 2.90867C5.56725 2.89786 5.39274 2.92419 5.22948 2.9859C5.06621 3.04761 4.91792 3.14329 4.79442 3.26663L2.91504 5.146C2.03736 6.02369 1.71379 7.26756 2.09936 8.35838C3.68951 12.8774 6.27676 16.9805 9.66917 20.3631C13.0518 23.7555 17.1549 26.3427 21.6739 27.9329C22.7647 28.3166 24.0086 27.9949 24.8863 27.1172L26.7657 25.2379C26.8889 25.1142 26.9844 24.9658 27.046 24.8025C27.1075 24.6392 27.1337 24.4646 27.1227 24.2904C27.1117 24.1162 27.0638 23.9463 26.9822 23.792C26.9006 23.6377 26.7872 23.5025 26.6494 23.3953L22.4605 20.1364C22.3132 20.0219 22.1418 19.9423 21.9592 19.9037C21.7766 19.8652 21.5876 19.8685 21.4065 19.9136L17.4308 20.9076C16.8997 21.0405 16.3432 21.0337 15.8156 20.8877C15.2879 20.7417 14.8071 20.4615 14.4199 20.0744L9.95979 15.6124C9.57273 15.2252 9.29255 14.7444 9.14655 14.2167C9.00055 13.6891 8.9937 13.1326 9.12667 12.6015L10.1206 8.62575C10.1657 8.44466 10.1691 8.2557 10.1305 8.07311C10.0919 7.89053 10.0123 7.71909 9.89779 7.57175L6.63698 3.38094ZM3.42461 1.89875C3.74249 1.58107 4.12429 1.33462 4.54468 1.17575C4.96507 1.01687 5.41443 0.949209 5.86296 0.977242C6.3115 1.00528 6.74894 1.12837 7.14628 1.33835C7.54361 1.54833 7.89176 1.8404 8.16761 2.19519L11.4245 6.38406C12.0232 7.15131 12.2344 8.153 11.998 9.09656L11.0041 13.0743C10.9524 13.2806 10.9551 13.4969 11.0118 13.702C11.0685 13.9071 11.1773 14.094 11.3277 14.2445L15.7917 18.7046C15.9422 18.855 16.1291 18.9638 16.3342 19.0205C16.5393 19.0772 16.7555 19.0799 16.9619 19.0282L20.9377 18.0342C21.404 17.9178 21.8907 17.9089 22.361 18.0082C22.8312 18.1076 23.2727 18.3126 23.6521 18.6077L27.841 21.8647C29.3464 23.0349 29.4859 25.2611 28.1374 26.6077L26.258 28.4871C24.9154 29.8297 22.9062 30.4207 21.0326 29.7619C16.24 28.075 11.8887 25.3309 8.30129 21.7329C4.70266 18.1457 1.95781 13.7944 0.270357 9.00163C-0.388393 7.12806 0.202545 5.11888 1.54523 3.77425L3.42461 1.89681V1.89875Z" fill="#ED8C32"/>
</svg>
